<svg width="739" height="611" viewBox="0 0 739 611" fill="none" xmlns="http://www.w3.org/2000/svg">
<path d="M90.646 349.739C252.31 563.974 316.518 138.649 519.629 327.958" stroke="#E5E5E5" stroke-width="3"/>
<path d="M70.2205 315.849C87.0162 332.183 91.9734 345.979 93.6429 353.416C83.1356 351.738 73.0385 348.167 56.2428 331.833C41.3136 313.222 32.8205 294.266 32.8205 294.266C32.8205 294.266 52.3948 302.167 70.2205 315.849Z" fill="#CA9893"/>
<path d="M104.97 326.507C110.508 346.822 108.763 359.484 107.124 365.822C100.442 359.455 94.7588 351.883 89.2199 331.568C85.8378 310.471 87.0658 292.253 87.0658 292.253C87.0658 292.253 97.7152 307.659 104.97 326.507Z" fill="#CA9893"/>
<path d="M72.0994 387.856C91.4745 381.778 100.749 373.418 104.978 368.561C96.2407 366.116 87.0686 365.199 67.6935 371.278C48.8502 379.674 34.8147 390.573 34.8147 390.573C34.8147 390.573 52.9833 391.635 72.0994 387.856Z" fill="#CA9893"/>
<path d="M102.021 416.314C121.396 410.235 130.67 401.875 134.899 397.018C126.162 394.574 116.99 393.657 97.6147 399.735C78.7714 408.132 64.7359 419.031 64.7359 419.031C64.7359 419.031 82.9045 420.093 102.021 416.314Z" fill="#CA9893"/>
<path d="M135.777 441.986C155.89 431.97 164.34 420.563 167.968 414.093C157.777 412.319 147.436 412.457 127.323 422.473C108.299 435.23 95.1321 450.366 95.1321 450.366C95.1321 450.366 115.453 449.178 135.777 441.986Z" fill="#CA9893"/>
<path d="M189.083 455.504C201.691 436.154 203.01 421.553 202.707 413.871C192.533 417.516 183.28 422.96 170.672 442.309C160.56 463.562 157.048 483.943 157.048 483.943C157.048 483.943 174.723 472.422 189.083 455.504Z" fill="#CA9893"/>
<path d="M239.186 439.686C242.989 416.671 238.364 402.954 235.02 396.181C227.173 403.99 220.886 413.005 217.084 436.019C216.324 459.633 221.251 479.524 221.251 479.524C221.251 479.524 232.812 461.293 239.186 439.686Z" fill="#CA9893"/>
<path d="M275.635 417.966C273.4 394.837 265.402 383.026 260.427 377.498C254.842 387.225 251.077 397.659 253.312 420.789C258.645 443.62 268.521 461.257 268.521 461.257C268.521 461.257 275.02 440.485 275.635 417.966Z" fill="#CA9893"/>
<path d="M304.924 392.06C302.689 368.93 294.691 357.119 289.716 351.592C284.132 361.318 280.366 371.753 282.601 394.882C287.934 417.714 297.81 435.35 297.81 435.35C297.81 435.35 304.309 414.579 304.924 392.06Z" fill="#CA9893"/>
<path d="M341.62 361.953C334.361 340.096 323.956 330.613 317.882 326.477C314.561 337.265 313.173 348.294 320.431 370.151C330.651 390.961 344.169 405.628 344.169 405.628C344.169 405.628 345.961 383.917 341.62 361.953Z" fill="#CA9893"/>
<path d="M374.194 337.657C365.435 316.446 354.388 307.802 348.037 304.15C345.466 315.152 344.841 326.244 353.6 347.455C365.244 367.395 379.757 380.961 379.757 380.961C379.757 380.961 380.046 359.199 374.194 337.657Z" fill="#CA9893"/>
<path d="M407.384 322.881C401.292 300.644 390.542 290.857 384.138 286.559C379.43 297.404 376.859 308.529 382.95 330.766C392.446 352.002 406.196 367.089 406.196 367.089C406.196 367.089 410.204 345.171 407.384 322.881Z" fill="#CA9893"/>
<path d="M443.849 324.596C438.316 299.084 426.763 287.326 419.788 282.05C413.811 293.987 410.232 306.379 415.765 331.891C425.206 356.496 439.827 374.437 439.827 374.437C439.827 374.437 445.685 349.952 443.849 324.596Z" fill="#CA9893"/>
<path d="M481.771 338.702C480.344 310.458 468.645 295.81 461.198 288.915C451.359 300.578 444.365 313.163 445.792 341.406C452.202 369.388 466.364 391.193 466.364 391.193C466.364 391.193 478.694 366.108 481.771 338.702Z" fill="#CA9893"/>
<path d="M137.189 349.571C143.015 372.997 140.21 387.594 137.859 394.9C129.91 387.556 123.258 378.823 117.432 355.397C114.316 331.071 116.762 310.067 116.762 310.067C116.762 310.067 129.164 327.836 137.189 349.571Z" fill="#CA9893"/>
<path d="M168.774 362.378C173.883 386.002 170.64 400.506 168.069 407.733C160.351 400.12 153.971 391.161 148.862 367.537C146.486 343.104 149.566 322.182 149.566 322.182C149.566 322.182 161.417 340.37 168.774 362.378Z" fill="#CA9893"/>
<path d="M201.288 360.895C208.088 384.009 205.893 398.712 203.846 406.114C195.592 399.153 188.578 390.743 181.777 367.629C177.648 343.491 179.218 322.411 179.218 322.411C179.218 322.411 192.359 339.571 201.288 360.895Z" fill="#CA9893"/>
<path d="M226.996 346.131C235.521 368.57 234.433 383.389 232.946 390.929C224.184 384.69 216.55 376.907 208.024 354.469C202.09 330.786 202.074 309.671 202.074 309.671C202.074 309.671 216.481 325.652 226.996 346.131Z" fill="#CA9893"/>
<path d="M249.868 329.473C259.785 351.243 259.624 366.088 258.609 373.706C249.466 368.099 241.353 360.873 231.436 339.103C224.029 315.913 222.696 294.87 222.696 294.87C222.696 294.87 238.086 309.795 249.868 329.473Z" fill="#CA9893"/>
<path d="M274.357 304.392C287.11 324.41 288.934 339.093 288.946 346.767C279.121 342.593 270.104 336.668 257.35 316.65C246.899 294.855 242.762 274.274 242.762 274.274C242.762 274.274 260.032 286.717 274.357 304.392Z" fill="#CA9893"/>
<path d="M301.522 280.12C314.275 300.138 316.099 314.821 316.111 322.495C306.286 318.321 297.269 312.396 284.515 292.377C274.064 270.583 269.927 250.002 269.927 250.002C269.927 250.002 287.197 262.445 301.522 280.12Z" fill="#CA9893"/>
<path d="M332.922 258.497C345.675 278.515 347.499 293.198 347.51 300.872C337.686 296.698 328.668 290.773 315.915 270.754C305.463 248.96 301.326 228.379 301.326 228.379C301.326 228.379 318.596 240.822 332.922 258.497Z" fill="#CA9893"/>
<path d="M367.014 236.547C380.175 257.204 381.639 272.658 381.38 280.772C370.844 276.751 361.247 270.847 348.087 250.189C337.492 227.562 333.721 205.964 333.721 205.964C333.721 205.964 352.062 218.431 367.014 236.547Z" fill="#CA9893"/>
<path d="M406.475 228.158C420.45 250.094 421.414 266.93 420.756 275.822C409.006 271.958 398.404 265.984 384.429 244.048C373.448 219.825 370.147 196.383 370.147 196.383C370.147 196.383 390.356 209.093 406.475 228.158Z" fill="#CA9893"/>
<path d="M456.103 230.208C468.62 255.987 466.436 275.125 463.873 285.156C450.45 279.999 438.834 272.528 426.317 246.749C417.871 218.578 418.547 191.802 418.547 191.802C418.547 191.802 440.427 207.541 456.103 230.208Z" fill="#CA9893"/>
<path d="M504.046 249.118C510.178 277.455 503.651 295.536 498.861 304.648C487.092 296.168 477.602 285.898 471.47 257.561C469.82 227.943 476.655 202.031 476.655 202.031C476.655 202.031 494.145 222.999 504.046 249.118Z" fill="#CA9893"/>
<ellipse cx="440.506" cy="240.622" rx="232.999" ry="225.847" fill="#F0BB34"/>
<path d="M711.295 195.855C694.601 271.309 670.446 314.49 608.578 392.619" stroke="#BFBABA" stroke-width="3"/>
<path d="M722.297 179.409C723.775 188.174 718.63 196.651 712.77 197.522C706.91 198.394 699.299 191.347 699.483 183.229C699.702 173.555 711.446 170.985 708.746 164.642C706.045 158.298 720.295 167.539 722.297 179.409Z" fill="#7B1919"/>
<path d="M697.244 211.138C703.006 217.048 704.117 225.416 700.615 228.428C697.113 231.44 688.124 229.28 683.841 223.18C678.738 215.911 685.311 209.265 680.035 205.646C674.759 202.027 689.443 203.136 697.244 211.138Z" fill="#7B1919"/>
<path d="M721.191 220.646C712.678 220.12 705.031 224.538 704.719 228.989C704.407 233.439 711.823 238.676 719.569 238C728.8 237.194 730.211 228.22 736.517 229.823C742.824 231.427 732.719 221.359 721.191 220.646Z" fill="#7B1919"/>
<path d="M686.377 242.812C692.441 249.328 693.214 258.555 689.167 261.877C685.12 265.199 675.274 262.821 670.86 256.096C665.602 248.082 673.251 240.75 667.601 236.761C661.951 232.772 678.168 233.99 686.377 242.812Z" fill="#7B1919"/>
<path d="M710.503 252.241C701.293 252.018 693.238 257.349 693.099 262.396C692.961 267.443 701.196 273.042 709.525 271.939C719.449 270.624 720.573 260.413 727.45 261.95C734.326 263.488 722.974 252.543 710.503 252.241Z" fill="#7B1919"/>
<path d="M669.95 274.244C676.631 281.679 677.387 292.006 672.838 295.611C668.29 299.217 657.345 296.304 652.505 288.677C646.737 279.588 655.347 271.599 649.096 266.996C642.846 262.393 660.903 264.176 669.95 274.244Z" fill="#7B1919"/>
<path d="M697.839 287.657C687.563 286.433 677.925 291.452 677.176 296.998C676.427 302.543 684.981 309.587 694.428 309.255C705.685 308.86 708.143 297.73 715.655 300.154C723.166 302.578 711.755 289.314 697.839 287.657Z" fill="#7B1919"/>
<path d="M653.428 304.203C659.996 311.727 660.595 322.062 655.993 325.607C651.39 329.151 640.491 326.093 635.766 318.402C630.137 309.238 638.866 301.364 632.686 296.678C626.506 291.992 644.534 294.016 653.428 304.203Z" fill="#7B1919"/>
<path d="M680.505 317.507C670.237 316.225 660.567 321.19 659.783 326.732C658.999 332.273 667.508 339.364 676.957 339.086C688.216 338.754 690.745 327.637 698.241 330.103C705.737 332.57 694.41 319.242 680.505 317.507Z" fill="#7B1919"/>
<path d="M633.128 333.184C639.696 340.707 640.296 351.042 635.693 354.587C631.091 358.132 620.192 355.073 615.467 347.383C609.837 338.219 618.565 330.345 612.385 325.659C606.205 320.974 624.233 322.996 633.128 333.184Z" fill="#7B1919"/>
<path d="M658.58 346.712C648.229 346.336 639.095 352.126 638.865 357.712C638.635 363.298 647.811 369.613 657.191 368.508C668.368 367.191 669.782 355.901 677.49 357.7C685.198 359.498 672.597 347.221 658.58 346.712Z" fill="#7B1919"/>
<path d="M624.388 226.436C615.897 278.018 600.088 308.409 557.861 364.482" stroke="#BFBABA" stroke-width="3"/>
<path d="M631.76 214.753C633.337 220.542 629.931 226.531 625.583 227.466C621.235 228.4 615.151 224.131 614.855 218.677C614.502 212.179 623.173 209.755 620.809 205.663C618.445 201.572 629.625 206.915 631.76 214.753Z" fill="#065324"/>
<path d="M614.666 237.521C619.303 241.139 620.583 246.683 618.118 248.911C615.652 251.139 608.795 250.229 605.258 246.395C601.042 241.827 605.616 236.978 601.466 234.867C597.316 232.756 608.388 232.623 614.666 237.521Z" fill="#065324"/>
<path d="M633.133 242.465C626.72 242.62 621.222 246.04 621.225 249.042C621.229 252.044 627.07 255.112 632.844 254.195C639.723 253.104 640.303 247.004 645.118 247.702C649.933 248.4 641.817 242.254 633.133 242.465Z" fill="#065324"/>
<path d="M608.208 259.405C613.103 263.41 614.176 269.55 611.318 272.019C608.46 274.488 600.949 273.482 597.28 269.237C592.908 264.179 598.254 258.807 593.803 256.47C589.353 254.133 601.58 253.981 608.208 259.405Z" fill="#065324"/>
<path d="M626.805 264.284C619.886 264.685 614.13 268.74 614.295 272.132C614.461 275.524 620.936 278.785 627.123 277.548C634.496 276.073 634.794 269.161 640.033 269.781C645.272 270.401 636.174 263.742 626.805 264.284Z" fill="#065324"/>
<path d="M597.567 281.458C602.975 286.043 604.092 292.921 600.874 295.61C597.655 298.298 589.291 296.999 585.254 292.175C580.443 286.427 586.473 280.557 581.54 277.845C576.607 275.132 590.244 275.249 597.567 281.458Z" fill="#065324"/>
<path d="M619.199 288.783C611.427 288.577 604.466 292.517 604.201 296.28C603.936 300.043 610.727 304.253 617.794 303.467C626.215 302.529 627.465 294.921 633.227 296.097C638.99 297.273 629.724 289.063 619.199 288.783Z" fill="#065324"/>
<path d="M586.775 302.529C592.103 307.181 593.105 314.074 589.842 316.725C586.58 319.376 578.242 317.977 574.288 313.103C569.577 307.296 575.703 301.496 570.818 298.724C565.933 295.952 579.561 296.231 586.775 302.529Z" fill="#065324"/>
<path d="M607.793 309.83C600.023 309.585 593.037 313.491 592.745 317.253C592.453 321.015 599.213 325.26 606.285 324.509C614.711 323.613 616.014 316.01 621.767 317.215C627.52 318.421 618.314 310.163 607.793 309.83Z" fill="#065324"/>
<path d="M573.099 323.17C578.427 327.822 579.428 334.714 576.166 337.366C572.904 340.017 564.566 338.618 560.612 333.745C555.9 327.937 562.026 322.137 557.141 319.365C552.255 316.593 565.884 316.872 573.099 323.17Z" fill="#065324"/>
<path d="M592.91 330.719C585.127 331.085 578.585 335.513 578.711 339.272C578.837 343.03 586.056 346.715 593.032 345.414C601.344 343.863 601.801 336.21 607.678 336.955C613.555 337.701 603.449 330.223 592.91 330.719Z" fill="#065324"/>
<path d="M311.836 135.955C347.201 181.069 359.697 217.14 372.674 295.162" stroke="#BFBABA" stroke-width="3"/>
<path d="M308.032 120.951C313.953 123.792 316.192 131.156 313.595 135.657C310.998 140.158 302.833 142.385 298.172 138.664C292.619 134.229 297.341 124.844 292.192 123.934C287.042 123.023 300.014 117.105 308.032 120.951Z" fill="#7B1919"/>
<path d="M313.341 152.586C319.86 151.155 325.353 154.077 325.261 157.87C325.169 161.662 319.136 167.019 313.29 167.327C306.324 167.695 305.915 160.138 300.996 162.242C296.077 164.345 304.514 154.524 313.341 152.586Z" fill="#7B1919"/>
<path d="M331.612 139.976C326.789 145.722 325.323 153.047 327.766 155.236C330.208 157.424 337.21 154.534 340.921 148.794C345.344 141.955 340.834 136.993 345.117 133.273C349.401 129.554 338.142 132.195 331.612 139.976Z" fill="#7B1919"/>
<path d="M326.14 174.234C333.174 172.859 338.991 176.398 338.792 180.711C338.593 185.024 331.978 190.886 325.696 191.009C318.211 191.156 317.971 182.54 312.637 184.742C307.303 186.945 316.617 176.095 326.14 174.234Z" fill="#7B1919"/>
<path d="M344.459 161.463C339.444 167.832 338.297 175.848 341.182 178.179C344.066 180.51 351.714 177.204 355.484 170.866C359.976 163.314 354.589 158.007 359.136 153.858C363.684 149.709 351.25 152.838 344.459 161.463Z" fill="#7B1919"/>
<path d="M335.849 199.679C343.749 198.277 350.201 202.316 349.902 207.106C349.603 211.896 342.092 218.293 335.055 218.317C326.671 218.346 326.554 208.764 320.542 211.117C314.531 213.47 325.151 201.577 335.849 199.679Z" fill="#7B1919"/>
<path d="M358.498 186.028C352.332 192.704 350.162 201.693 353.015 204.673C355.868 207.653 364.531 204.763 369.347 197.982C375.085 189.901 369.866 183.249 375.27 179.047C380.673 174.845 366.849 176.989 358.498 186.028Z" fill="#7B1919"/>
<path d="M344.644 224.54C352.536 223.256 358.911 227.409 358.547 232.21C358.184 237.011 350.611 243.312 343.599 243.226C335.243 243.125 335.258 233.51 329.234 235.777C323.211 238.043 333.957 226.278 344.644 224.54Z" fill="#7B1919"/>
<path d="M366.799 211.411C360.603 218.055 358.385 227.043 361.217 230.046C364.048 233.048 372.716 230.211 377.564 223.451C383.34 215.397 378.166 208.702 383.586 204.529C389.007 200.356 375.19 202.413 366.799 211.411Z" fill="#7B1919"/>
<path d="M350.862 251.62C358.754 250.337 365.129 254.489 364.766 259.29C364.402 264.09 356.83 270.392 349.818 270.307C341.462 270.206 341.476 260.591 335.453 262.858C329.43 265.125 340.175 253.359 350.862 251.62Z" fill="#7B1919"/>
<path d="M372.287 239.732C366.578 246.835 365.127 255.812 368.279 258.446C371.431 261.079 379.997 257.429 384.324 250.352C389.479 241.92 383.613 235.932 388.754 231.314C393.896 226.697 380.019 230.114 372.287 239.732Z" fill="#7B1919"/>
<path d="M176.705 193.583C193.399 269.037 217.555 312.217 279.423 390.346" stroke="#C8C3C3" stroke-width="3"/>
<path d="M165.704 177.136C164.226 185.902 169.37 194.378 175.23 195.25C181.09 196.121 188.701 189.074 188.518 180.956C188.299 171.282 176.555 168.713 179.255 162.369C181.955 156.025 167.706 165.266 165.704 177.136Z" fill="#BC4141"/>
<path d="M190.756 208.866C184.994 214.776 183.883 223.143 187.385 226.155C190.888 229.167 199.877 227.008 204.159 220.908C209.262 213.639 202.69 206.992 207.966 203.373C213.242 199.754 198.558 200.863 190.756 208.866Z" fill="#BC4141"/>
<path d="M166.809 218.373C175.323 217.847 182.97 222.266 183.282 226.716C183.594 231.167 176.178 236.404 168.431 235.727C159.201 234.921 157.79 225.948 151.483 227.551C145.177 229.154 155.282 219.086 166.809 218.373Z" fill="#BC4141"/>
<path d="M201.623 240.54C195.56 247.055 194.786 256.282 198.834 259.604C202.881 262.927 212.727 260.549 217.14 253.823C222.399 245.809 214.749 238.478 220.399 234.489C226.049 230.5 209.833 231.717 201.623 240.54Z" fill="#BC4141"/>
<path d="M177.497 249.968C186.707 249.745 194.762 255.077 194.901 260.124C195.04 265.171 186.805 270.77 178.476 269.666C168.551 268.351 167.427 258.14 160.551 259.678C153.675 261.215 165.026 250.27 177.497 249.968Z" fill="#BC4141"/>
<path d="M218.05 271.971C211.369 279.407 210.614 289.733 215.162 293.338C219.711 296.944 230.655 294.031 235.496 286.404C241.263 277.316 232.654 269.326 238.904 264.723C245.154 260.12 227.097 261.903 218.05 271.971Z" fill="#BC4141"/>
<path d="M190.161 285.384C200.438 284.16 210.076 289.179 210.824 294.725C211.573 300.271 203.019 307.314 193.572 306.983C182.315 306.588 179.857 295.457 172.346 297.881C164.834 300.305 176.246 287.041 190.161 285.384Z" fill="#BC4141"/>
<path d="M234.573 301.931C228.005 309.454 227.405 319.79 232.008 323.334C236.61 326.879 247.51 323.82 252.234 316.129C257.864 306.965 249.135 299.091 255.315 294.405C261.495 289.72 243.467 291.743 234.573 301.931Z" fill="#BC4141"/>
<path d="M207.495 315.234C217.764 313.953 227.434 318.918 228.217 324.459C229.001 330.001 220.492 337.092 211.043 336.813C199.784 336.481 197.255 325.365 189.759 327.831C182.264 330.297 193.591 316.969 207.495 315.234Z" fill="#BC4141"/>
<path d="M254.873 330.911C248.304 338.434 247.705 348.769 252.307 352.314C256.909 355.859 267.809 352.801 272.534 345.11C278.164 335.946 269.435 328.072 275.615 323.386C281.796 318.701 263.767 320.724 254.873 330.911Z" fill="#BC4141"/>
<path d="M229.42 344.439C239.771 344.063 248.906 349.854 249.136 355.44C249.366 361.026 240.19 367.34 230.81 366.235C219.633 364.918 218.219 353.628 210.511 355.427C202.803 357.226 215.404 344.948 229.42 344.439Z" fill="#BC4141"/>
<path d="M254.911 138.799C182.915 295.114 424.171 231.962 375.933 408.762" stroke="#E5E5E5" stroke-width="3"/>
<path d="M267.615 117.375C263.266 132.162 257.238 138.728 253.732 141.624C251.937 134.469 251.248 127.113 255.596 112.327C261.624 98.1792 269.478 88.0775 269.478 88.0775C269.478 88.0775 270.298 102.578 267.615 117.375Z" fill="#065324"/>
<path d="M270.85 142.291C261.524 150.83 254.384 152.817 250.615 153.32C252.275 147.47 254.828 141.964 264.154 133.425C274.445 126.078 284.39 122.396 284.39 122.396C284.39 122.396 278.963 133.011 270.85 142.291Z" fill="#065324"/>
<path d="M230.025 136.249C238.184 147.192 244.971 151.092 248.619 152.615C247.681 146.408 245.824 140.296 237.665 129.353C228.416 119.321 219.071 112.987 219.071 112.987C219.071 112.987 223.147 124.908 230.025 136.249Z" fill="#065324"/>
<path d="M222.617 162.434C230.777 173.376 237.564 177.277 241.212 178.8C240.274 172.592 238.417 166.481 230.258 155.538C221.008 145.506 211.663 139.172 211.663 139.172C211.663 139.172 215.74 151.093 222.617 162.434Z" fill="#065324"/>
<path d="M217.661 190.396C228.091 200.847 236.279 203.471 240.626 204.212C238.963 197.236 236.25 190.633 225.82 180.183C214.219 171.104 202.856 166.368 202.856 166.368C202.856 166.368 208.672 179.118 217.661 190.396Z" fill="#065324"/>
<path d="M224.122 227.923C237.571 231.267 245.627 228.531 249.611 226.451C245.087 220.816 239.847 216.214 226.398 212.87C212.581 211.595 200.909 214.342 200.909 214.342C200.909 214.342 211.512 222.859 224.122 227.923Z" fill="#065324"/>
<path d="M245.275 256.197C258.414 252.99 264.485 246.656 267.212 242.848C261.081 239.728 254.71 237.906 241.572 241.112C228.893 246.419 219.634 254.461 219.634 254.461C219.634 254.461 232.224 257.407 245.275 256.197Z" fill="#065324"/>
<path d="M266.062 274.259C277.72 267.149 281.923 259.119 283.575 254.569C277.007 253.372 270.53 253.516 258.872 260.625C248.162 269.65 241.359 280.315 241.359 280.315C241.359 280.315 254 279.39 266.062 274.259Z" fill="#065324"/>
<path d="M287.236 286.699C298.893 279.59 303.096 271.559 304.748 267.01C298.18 265.813 291.703 265.956 280.045 273.066C269.335 282.09 262.532 292.755 262.532 292.755C262.532 292.755 275.173 291.83 287.236 286.699Z" fill="#065324"/>
<path d="M312.52 302.862C322.222 292.841 324.58 283.837 325.216 278.924C318.665 279.439 312.48 281.254 302.777 291.276C294.383 302.94 290.08 315.214 290.08 315.214C290.08 315.214 302.016 311.037 312.52 302.862Z" fill="#065324"/>
<path d="M333.68 317.806C342.658 306.98 344.408 297.77 344.718 292.798C338.245 293.847 332.221 296.168 323.243 306.994C315.673 319.358 312.206 332.001 312.206 332.001C312.206 332.001 323.785 326.847 333.68 317.806Z" fill="#065324"/>
<path d="M349.964 335.481C360.166 326.115 362.596 316.815 363.234 311.65C356.298 311.29 349.76 312.37 339.558 321.735C330.755 333.039 326.289 345.565 326.289 345.565C326.289 345.565 338.9 342.76 349.964 335.481Z" fill="#065324"/>
<path d="M358.366 359.304C370.441 349.493 373.709 339.194 374.718 333.423C366.881 332.516 359.416 333.259 347.34 343.07C336.742 355.166 330.989 368.951 330.989 368.951C330.989 368.951 345.43 366.703 358.366 359.304Z" fill="#065324"/>
<path d="M360.589 387.101C375.157 379.256 379.915 368.154 381.659 361.683C372.982 358.23 364.543 356.83 349.975 364.675C336.817 375.655 328.905 390.094 328.905 390.094C328.905 390.094 345.314 391.852 360.589 387.101Z" fill="#065324"/>
<path d="M266.881 168.627C255.983 178.114 247.55 179.896 243.087 180.179C244.94 173.276 247.86 166.864 258.758 157.377C270.823 149.409 282.552 145.825 282.552 145.825C282.552 145.825 276.324 158.144 266.881 168.627Z" fill="#065324"/>
<path d="M268.173 192.04C256.987 201.115 248.491 202.592 244.014 202.716C246.069 195.895 249.177 189.602 260.362 180.527C272.673 173.007 284.521 169.85 284.521 169.85C284.521 169.85 277.93 181.918 268.173 192.04Z" fill="#065324"/>
<path d="M277.256 212.542C266.772 222.578 258.439 224.776 254.003 225.279C255.576 218.274 258.232 211.709 268.716 201.673C280.424 193.101 291.969 188.936 291.969 188.936C291.969 188.936 286.251 201.58 277.256 212.542Z" fill="#065324"/>
<path d="M291.625 225.418C281.938 236.395 273.825 239.333 269.46 240.229C270.521 233.075 272.687 226.266 282.374 215.289C293.38 205.67 304.539 200.478 304.539 200.478C304.539 200.478 299.768 213.646 291.625 225.418Z" fill="#065324"/>
<path d="M306.27 236.01C297.292 247.716 289.403 251.254 285.116 252.472C285.747 245.229 287.496 238.25 296.474 226.544C306.843 216.1 317.629 210.081 317.629 210.081C317.629 210.081 313.666 223.62 306.27 236.01Z" fill="#065324"/>
<path d="M325.782 245.572C318.454 258.668 311.157 263.442 307.102 265.332C306.801 258.003 307.632 250.762 314.96 237.665C323.814 225.61 333.639 217.906 333.639 217.906C333.639 217.906 331.469 232.042 325.782 245.572Z" fill="#065324"/>
<path d="M345.549 257.05C338.221 270.146 330.924 274.92 326.869 276.81C326.568 269.481 327.399 262.24 334.727 249.143C343.581 237.088 353.406 229.384 353.406 229.384C353.406 229.384 351.236 243.52 345.549 257.05Z" fill="#065324"/>
<path d="M364.996 271.896C357.668 284.992 350.371 289.766 346.317 291.656C346.015 284.327 346.846 277.086 354.174 263.989C363.029 251.934 372.853 244.229 372.853 244.229C372.853 244.229 370.684 258.366 364.996 271.896Z" fill="#065324"/>
<path d="M385.303 288.39C377.741 301.904 369.945 306.636 365.589 308.46C365.025 300.712 365.697 293.104 373.259 279.59C382.518 267.239 392.973 259.52 392.973 259.52C392.973 259.52 391.064 274.349 385.303 288.39Z" fill="#065324"/>
<path d="M399.812 311.656C391.781 326.007 383.127 330.757 378.258 332.516C377.301 324.027 377.753 315.758 385.783 301.406C395.786 288.416 407.337 280.546 407.337 280.546C407.337 280.546 405.776 296.634 399.812 311.656Z" fill="#065324"/>
<path d="M411.396 344.009C400.962 358.367 390.287 361.661 384.33 362.477C383.629 352.598 384.614 343.31 395.048 328.952C407.786 316.619 422.115 310.483 422.115 310.483C422.115 310.483 419.379 328.387 411.396 344.009Z" fill="#065324"/>
<path d="M413.637 379.417C400.221 390.305 388.996 390.553 382.955 389.714C384.435 380.08 387.442 371.47 400.858 360.582C416.096 352.256 431.54 350.285 431.54 350.285C431.54 350.285 424.919 366.654 413.637 379.417Z" fill="#065324"/>
<path d="M602.668 78.8539C674.664 235.169 433.408 172.017 481.646 348.816" stroke="#E5E5E5" stroke-width="3"/>
<path d="M589.965 57.4302C594.313 72.2168 600.341 78.7831 603.847 81.6793C605.642 74.5243 606.331 67.1682 601.983 52.3816C595.955 38.2342 588.101 28.1324 588.101 28.1324C588.101 28.1324 587.281 42.6331 589.965 57.4302Z" fill="#BC4141"/>
<path d="M586.729 82.346C596.056 90.8853 603.195 92.8717 606.964 93.3747C605.304 87.5246 602.752 82.0194 593.425 73.4801C583.135 66.1333 573.19 62.4514 573.19 62.4514C573.19 62.4514 578.616 73.0658 586.729 82.346Z" fill="#BC4141"/>
<path d="M627.554 76.3037C619.395 87.2466 612.608 91.1474 608.96 92.6699C609.898 86.4626 611.755 80.3513 619.914 69.4084C629.164 59.3757 638.509 53.0423 638.509 53.0423C638.509 53.0423 634.432 64.9629 627.554 76.3037Z" fill="#BC4141"/>
<path d="M634.962 102.489C626.802 113.431 620.015 117.332 616.367 118.855C617.305 112.647 619.162 106.536 627.322 95.5933C636.571 85.5605 645.916 79.2271 645.916 79.2271C645.916 79.2271 641.839 91.1477 634.962 102.489Z" fill="#BC4141"/>
<path d="M639.918 130.451C629.488 140.902 621.3 143.526 616.953 144.267C618.616 137.291 621.329 130.688 631.759 120.238C643.36 111.159 654.724 106.423 654.724 106.423C654.724 106.423 648.908 119.173 639.918 130.451Z" fill="#BC4141"/>
<path d="M633.457 167.978C620.008 171.322 611.952 168.586 607.968 166.506C612.493 160.871 617.732 156.269 631.181 152.925C644.998 151.65 656.67 154.397 656.67 154.397C656.67 154.397 646.067 162.914 633.457 167.978Z" fill="#BC4141"/>
<path d="M612.304 196.252C599.166 193.045 593.094 186.711 590.367 182.903C596.499 179.783 602.869 177.961 616.008 181.167C628.686 186.474 637.945 194.516 637.945 194.516C637.945 194.516 625.355 197.462 612.304 196.252Z" fill="#BC4141"/>
<path d="M591.517 214.314C579.859 207.204 575.656 199.174 574.004 194.624C580.572 193.427 587.05 193.571 598.707 200.68C609.417 209.704 616.22 220.37 616.22 220.37C616.22 220.37 603.579 219.445 591.517 214.314Z" fill="#BC4141"/>
<path d="M570.344 226.754C558.686 219.645 554.483 211.614 552.831 207.065C559.399 205.868 565.877 206.011 577.534 213.121C588.244 222.145 595.047 232.81 595.047 232.81C595.047 232.81 582.406 231.885 570.344 226.754Z" fill="#BC4141"/>
<path d="M545.059 242.917C535.357 232.896 532.999 223.892 532.363 218.979C538.914 219.494 545.1 221.309 554.802 231.331C563.196 242.995 567.499 255.269 567.499 255.269C567.499 255.269 555.563 251.092 545.059 242.917Z" fill="#BC4141"/>
<path d="M523.899 257.861C514.921 247.035 513.171 237.825 512.861 232.853C519.334 233.902 525.358 236.223 534.336 247.049C541.906 259.413 545.374 272.056 545.374 272.056C545.374 272.056 533.794 266.902 523.899 257.861Z" fill="#BC4141"/>
<path d="M507.615 275.536C497.413 266.17 494.983 256.87 494.346 251.705C501.281 251.345 507.819 252.425 518.021 261.79C526.824 273.094 531.29 285.62 531.29 285.62C531.29 285.62 518.679 282.815 507.615 275.536Z" fill="#BC4141"/>
<path d="M499.213 299.359C487.138 289.548 483.87 279.249 482.862 273.478C490.698 272.571 498.163 273.314 510.239 283.125C520.837 295.221 526.59 309.006 526.59 309.006C526.59 309.006 512.15 306.758 499.213 299.359Z" fill="#BC4141"/>
<path d="M496.99 327.156C482.422 319.311 477.665 308.209 475.92 301.738C484.598 298.285 493.036 296.885 507.604 304.73C520.762 315.71 528.675 330.149 528.675 330.149C528.675 330.149 512.265 331.907 496.99 327.156Z" fill="#BC4141"/>
<path d="M590.698 108.682C601.596 118.169 610.029 119.951 614.492 120.234C612.639 113.331 609.719 106.919 598.822 97.4323C586.756 89.464 575.027 85.8801 575.027 85.8801C575.027 85.8801 581.255 98.1993 590.698 108.682Z" fill="#BC4141"/>
<path d="M589.406 132.095C600.592 141.17 609.088 142.647 613.565 142.771C611.51 135.95 608.402 129.657 597.217 120.582C584.906 113.062 573.058 109.905 573.058 109.905C573.058 109.905 579.649 121.973 589.406 132.095Z" fill="#BC4141"/>
<path d="M580.323 152.597C590.807 162.633 599.14 164.831 603.576 165.334C602.003 158.329 599.348 151.764 588.863 141.728C577.156 133.156 565.61 128.991 565.61 128.991C565.61 128.991 571.328 141.635 580.323 152.597Z" fill="#BC4141"/>
<path d="M565.954 165.473C575.641 176.45 583.754 179.388 588.12 180.284C587.058 173.13 584.892 166.321 575.205 155.344C564.2 145.725 553.04 140.533 553.04 140.533C553.04 140.533 557.812 153.701 565.954 165.473Z" fill="#BC4141"/>
<path d="M551.309 176.065C560.287 187.771 568.177 191.309 572.463 192.527C571.833 185.284 570.083 178.305 561.105 166.599C550.736 156.155 539.951 150.136 539.951 150.136C539.951 150.136 543.913 163.675 551.309 176.065Z" fill="#BC4141"/>
<path d="M531.797 185.627C539.125 198.723 546.423 203.497 550.477 205.387C550.778 198.058 549.947 190.817 542.619 177.72C533.765 165.665 523.94 157.961 523.94 157.961C523.94 157.961 526.11 172.097 531.797 185.627Z" fill="#BC4141"/>
<path d="M512.03 197.105C519.358 210.201 526.656 214.975 530.71 216.865C531.011 209.536 530.18 202.295 522.852 189.198C513.998 177.143 504.173 169.439 504.173 169.439C504.173 169.439 506.343 183.575 512.03 197.105Z" fill="#BC4141"/>
<path d="M492.583 211.951C499.911 225.047 507.208 229.821 511.263 231.711C511.564 224.382 510.733 217.141 503.405 204.044C494.551 191.989 484.726 184.284 484.726 184.284C484.726 184.284 486.896 198.421 492.583 211.951Z" fill="#BC4141"/>
<path d="M472.276 228.445C479.838 241.959 487.634 246.691 491.99 248.515C492.554 240.767 491.882 233.159 484.32 219.645C475.061 207.294 464.606 199.575 464.606 199.575C464.606 199.575 466.515 214.404 472.276 228.445Z" fill="#BC4141"/>
<path d="M457.768 251.711C465.798 266.062 474.452 270.812 479.322 272.571C480.278 264.082 479.826 255.813 471.796 241.461C461.793 228.471 450.242 220.601 450.242 220.601C450.242 220.601 451.803 236.689 457.768 251.711Z" fill="#BC4141"/>
<path d="M446.183 284.064C456.617 298.422 467.292 301.716 473.25 302.532C473.95 292.653 472.965 283.365 462.531 269.007C449.794 256.674 435.465 250.538 435.465 250.538C435.465 250.538 438.201 268.442 446.183 284.064Z" fill="#BC4141"/>
<path d="M443.942 319.472C457.358 330.36 468.584 330.608 474.624 329.769C473.144 320.135 470.138 311.525 456.721 300.637C441.483 292.311 426.04 290.34 426.04 290.34C426.04 290.34 432.66 306.709 443.942 319.472Z" fill="#BC4141"/>
<path d="M409.64 221.843V215.741L489.439 189.807V192.858V200.486V216.885L493.203 238.624V251.973L500.355 256.168V266.847V282.865V304.985V316.808V335.115V349.608V358.379L498.097 362.956H493.203H489.439H483.793H478.147H469.866H463.09H455.562H449.539H441.635H436.365H428.46H423.567H417.921L412.651 361.812H407.381H401.735L395.336 361.049L388.937 359.524L383.291 358.379L378.021 357.617L373.881 356.854L366.352 356.091L359.577 354.184L354.307 351.514L350.543 349.608L353.554 343.887L356.189 335.115L359.577 327.869L363.341 316.808L366.352 307.274L371.246 296.595L374.634 287.442L378.774 276.381L383.291 266.847L386.302 261.507L388.937 256.168L391.948 251.973L395.336 245.871L398.347 242.819L400.982 238.624L403.994 233.666L407.005 227.564L409.64 221.843Z" fill="#D1B5B2"/>
<path d="M502.99 358.816L349.038 346.018L336.24 474.374H482.287L502.99 358.816Z" fill="#BC4141"/>
<path d="M480.029 234.6V229.706L490.568 236.482L507.883 282.028L501.861 308L498.473 315.528L493.956 320.798L491.698 325.691V332.843V341.877L490.568 347.9L485.675 356.181L481.534 361.074L474.759 366.344L466.854 371.99L456.315 376.13L451.798 377.636L447.281 377.26L445.399 375.001L445.022 371.99V366.344L446.152 359.945L450.292 351.664L451.798 343.759L450.292 339.619L446.152 341.877L443.893 351.664L440.506 359.945L437.118 365.215L434.859 369.355L432.601 370.108L430.342 369.731L429.213 368.602L428.837 367.097L429.59 364.462L430.342 362.956L432.601 357.686L434.859 351.664V343.006V332.843L435.989 325.691L440.506 317.034L445.022 311.388L450.292 302.73L449.539 294.826L446.152 288.427C446.152 288.427 444.547 282.916 445.022 279.393C445.49 275.93 448.41 271.112 448.41 271.112L458.573 261.325L468.36 252.291L474.759 243.634L480.029 234.6Z" fill="#5B3E39"/>
<path d="M421.672 175.026C422.748 175.236 424.327 175.622 425.453 175.276C425.82 175.163 427.475 174.537 426.951 174.687C425.577 175.08 424.049 174.876 422.635 175.347" stroke="#BC4141" stroke-linecap="round" stroke-linejoin="round"/>
<path d="M415.893 177.594C414.641 179.247 413.446 180.922 412.04 182.41C410.701 183.828 410.172 185.374 409.151 186.905" stroke="#BC4141" stroke-linecap="round" stroke-linejoin="round"/>
<path d="M433.229 175.347C439.365 177.741 445.436 181.768 452.171 181.768" stroke="#BC4141" stroke-linecap="round" stroke-linejoin="round"/>
<path d="M410.435 192.041C411.217 194.159 411.507 194.861 412.932 196.286C413.5 196.854 414.434 197.361 414.93 197.981C415.351 198.507 417.023 199.221 417.677 199.408C418.408 199.617 419.153 199.83 419.888 200.068C420.269 200.19 421.612 200.212 421.922 200.46C424.406 202.448 429.208 200.71 432.195 200.71C434.214 200.71 436.561 199.559 438.527 199.122C440.01 198.793 441.91 197.866 443.111 196.786C445.602 194.544 450.099 192.157 451.208 188.831" stroke="#BC4141" stroke-linecap="round" stroke-linejoin="round"/>
<path d="M410.114 188.51C414.726 187.472 419.341 185.383 422.635 182.089" stroke="#BC4141" stroke-linecap="round" stroke-linejoin="round"/>
<path d="M423.277 182.089C424.728 182.372 426.344 183.116 427.772 182.481C428.561 182.13 430.096 181.447 430.982 181.447" stroke="#BC4141" stroke-linecap="round" stroke-linejoin="round"/>
<path d="M431.945 181.447C433.724 182.141 435.073 182.416 436.904 182.749C438.068 182.961 439.615 182.744 440.756 183.07C442.672 183.617 445.575 183.125 447.355 184.015" stroke="#BC4141" stroke-linecap="round" stroke-linejoin="round"/>
<path d="M413.004 188.831C414.433 189.871 415.856 190.737 417.338 191.56C418.493 192.201 419.872 191.946 421.03 192.434C423.761 193.584 427.71 192.362 430.501 192.362C433.067 192.362 435.357 191.458 437.635 190.757C439.202 190.275 441.323 190.555 442.54 189.473C443.42 188.691 444.54 187.028 445.429 186.584" stroke="#BC4141" stroke-linecap="round" stroke-linejoin="round"/>
<path d="M417.819 189.473C419.64 189.473 421.363 189.794 423.277 189.794C424.942 189.794 426.686 189.473 428.414 189.473C432.087 189.473 435.705 187.868 439.329 187.868" stroke="black" stroke-opacity="0.13" stroke-linecap="round" stroke-linejoin="round"/>
<path d="M421.351 185.62C421.351 187.383 421.578 188.323 422.314 189.794" stroke="black" stroke-opacity="0.05" stroke-linecap="round" stroke-linejoin="round"/>
<path d="M428.735 189.152C428.075 187.46 428.093 186.103 428.093 184.336" stroke="black" stroke-opacity="0.13" stroke-linecap="round" stroke-linejoin="round"/>
<path d="M435.156 188.189C435.422 186.824 435.156 186.183 435.156 184.978" stroke="black" stroke-linecap="round" stroke-linejoin="round"/>
<path d="M418.14 188.51C418.015 187.867 417.912 187.23 417.819 186.584" stroke="black" stroke-linecap="round" stroke-linejoin="round"/>
<path d="M440.292 186.905C440.793 185.622 440.613 185.394 440.613 184.336" stroke="black" stroke-linecap="round" stroke-linejoin="round"/>
<path d="M424.24 190.436C424.454 190.971 424.668 191.506 424.882 192.041" stroke="black" stroke-linecap="round" stroke-linejoin="round"/>
<path d="M428.735 190.436C428.949 190.971 429.163 191.506 429.377 192.041" stroke="black" stroke-linecap="round" stroke-linejoin="round"/>
<path d="M433.551 189.473C433.551 190.008 433.551 190.543 433.551 191.078" stroke="black" stroke-linecap="round" stroke-linejoin="round"/>
<path d="M418.14 189.473C418.033 190.008 417.926 190.543 417.819 191.078" stroke="black" stroke-linecap="round" stroke-linejoin="round"/>
<path d="M421.479 174.925C420.741 175.069 420.032 175.115 419.368 175.304C419.026 175.402 418.705 175.805 418.343 175.848C417.55 175.941 416.632 176.98 415.945 177.323" stroke="#BC4141" stroke-linecap="round" stroke-linejoin="round"/>
<path d="M427.198 174.556C428.323 174.556 429.485 174.741 430.519 174.741C431.361 174.741 432.128 175.294 432.917 175.294" stroke="#BC4141" stroke-linecap="round" stroke-linejoin="round"/>
<path d="M451.917 181.751C452.564 181.864 452.88 181.823 453.393 181.566" stroke="#BC4141" stroke-linecap="round" stroke-linejoin="round"/>
<path d="M453.577 184.149C452.742 185.251 452.325 186.228 451.774 187.469C451.502 188.08 451.269 189.177 450.626 189.498" stroke="#BC4141" stroke-linecap="round" stroke-linejoin="round"/>
<path d="M453.577 181.935C453.577 182.732 453.668 183.53 453.434 184.292C453.315 184.678 453.209 185.033 453.209 185.44" stroke="#BC4141" stroke-linecap="round" stroke-linejoin="round"/>
<path d="M408.751 187.469C408.574 188.255 408.347 188.362 408.659 189.048C408.843 189.453 408.935 189.697 408.935 190.144C408.935 190.583 409.416 191.511 409.673 191.897" stroke="#BC4141" stroke-linecap="round" stroke-linejoin="round"/>
<path d="M447.121 183.964C448.582 183.964 449.929 183.811 451.364 183.606C452.038 183.509 452.586 182.935 453.209 182.858C453.777 182.786 453.577 181.778 453.577 181.382" stroke="#BC4141" stroke-linecap="round" stroke-linejoin="round"/>
<path d="M446.752 184.149C446.288 184.891 445.796 185.62 445.276 186.27C444.855 186.797 444.126 187.041 443.657 187.51C442.906 188.262 442.357 188.743 441.495 189.222C441.12 189.43 439.871 189.609 439.742 189.867" stroke="#BC4141" stroke-linecap="round" stroke-linejoin="round"/>
<path d="M421.672 175.026C422.748 175.236 424.327 175.622 425.453 175.276C425.82 175.163 427.475 174.537 426.951 174.687C425.577 175.08 424.049 174.876 422.635 175.347" stroke="#BC4141" stroke-linecap="round" stroke-linejoin="round"/>
<path d="M415.893 177.594C414.641 179.247 413.446 180.922 412.04 182.41C410.701 183.828 410.172 185.374 409.151 186.905" stroke="#BC4141" stroke-linecap="round" stroke-linejoin="round"/>
<path d="M433.229 175.347C439.365 177.741 445.436 181.768 452.171 181.768" stroke="#BC4141" stroke-linecap="round" stroke-linejoin="round"/>
<path d="M410.016 192.065C410.798 194.183 411.507 194.861 412.932 196.286C413.5 196.854 414.434 197.361 414.93 197.981C415.351 198.507 417.023 199.221 417.677 199.408C418.408 199.617 419.508 199.945 419.888 200.068C420.269 200.19 421.309 200.556 422.061 200.71C425.825 201.476 430.367 200.71 433.354 200.71C435.989 200.068 437.034 199.844 439 199.408C440.483 199.078 443.069 197.367 444.27 196.286C446.761 194.044 448.624 193.041 450.292 189.807" stroke="#BC4141" stroke-linecap="round" stroke-linejoin="round"/>
<path d="M410.114 188.51C414.726 187.472 419.341 185.383 422.635 182.089" stroke="#BC4141" stroke-linecap="round" stroke-linejoin="round"/>
<path d="M423.277 182.089C424.728 182.372 426.344 183.116 427.772 182.481C428.561 182.13 430.096 181.447 430.982 181.447" stroke="#BC4141" stroke-linecap="round" stroke-linejoin="round"/>
<path d="M431.945 181.447C433.724 182.141 435.073 182.416 436.904 182.749C438.068 182.961 439.615 182.744 440.756 183.07C442.672 183.617 445.575 183.125 447.355 184.015" stroke="#BC4141" stroke-linecap="round" stroke-linejoin="round"/>
<path d="M413.004 188.831C414.433 189.871 415.856 190.737 417.338 191.56C418.493 192.201 419.871 191.946 421.03 192.434C423.761 193.584 427.71 192.362 430.501 192.362C433.067 192.362 435.357 191.458 437.635 190.757C439.202 190.275 441.323 190.555 442.54 189.473C443.42 188.691 444.54 187.028 445.429 186.584" stroke="#BC4141" stroke-linecap="round" stroke-linejoin="round"/>
<path d="M417.819 189.473C419.64 189.473 421.363 189.794 423.277 189.794C424.942 189.794 426.686 189.473 428.414 189.473C432.087 189.473 435.705 187.868 439.329 187.868" stroke="black" stroke-opacity="0.13" stroke-linecap="round" stroke-linejoin="round"/>
<path d="M421.351 185.62C421.351 187.383 421.578 188.323 422.314 189.794" stroke="black" stroke-opacity="0.05" stroke-linecap="round" stroke-linejoin="round"/>
<path d="M428.735 189.152C428.075 187.46 428.093 186.103 428.093 184.336" stroke="black" stroke-opacity="0.13" stroke-linecap="round" stroke-linejoin="round"/>
<path d="M435.156 188.189C435.422 186.824 435.156 186.183 435.156 184.978" stroke="black" stroke-linecap="round" stroke-linejoin="round"/>
<path d="M418.14 188.51C418.015 187.867 417.912 187.23 417.819 186.584" stroke="black" stroke-linecap="round" stroke-linejoin="round"/>
<path d="M440.292 186.905C440.793 185.622 440.613 185.394 440.613 184.336" stroke="black" stroke-linecap="round" stroke-linejoin="round"/>
<path d="M424.24 190.436C424.454 190.971 424.668 191.506 424.882 192.041" stroke="black" stroke-linecap="round" stroke-linejoin="round"/>
<path d="M428.735 190.436C428.949 190.971 429.163 191.506 429.377 192.041" stroke="black" stroke-linecap="round" stroke-linejoin="round"/>
<path d="M433.551 189.473C433.551 190.008 433.551 190.543 433.551 191.078" stroke="black" stroke-linecap="round" stroke-linejoin="round"/>
<path d="M418.14 189.473C418.033 190.008 417.926 190.543 417.819 191.078" stroke="black" stroke-linecap="round" stroke-linejoin="round"/>
<path d="M511.647 247.774L501.108 235.729V265.465V302.354V333.596L499.602 343.006L498.097 359.945L496.779 374.813L495.462 386.294L494.144 395.516L492.45 405.867L490.004 420.547L487.557 435.227L486.051 445.861L484.546 456.494L483.04 467.128L481.534 477.762H605.374V464.964L609.138 427.699L612.149 405.114V374.625L609.138 338.866L605.374 313.27L603.115 300.472L600.48 289.556L597.469 283.533L585.8 278.263L570.368 271.864L551.923 265.465L534.232 260.196L518.799 253.42L511.647 247.774Z" fill="#FFFBFB" stroke="#C8C3C3"/>
<path d="M385.549 233.094L403.617 216.908H410.393V224.06L399.1 241.752L389.314 255.679L382.162 272.241L372.751 291.438L364.094 310.635L355.06 334.349L349.79 352.417L347.155 363.709L343.768 391.563L341.509 425.817V454.048V479.267H237.62L242.513 459.694L249.665 403.232L256.44 367.473L265.098 338.489L275.637 303.483L284.671 272.241L294.081 255.679L297.846 248.527L308.762 245.139L331.723 241.752L355.06 238.364L385.549 233.094Z" fill="#FFFCFC" stroke="#BFBABA"/>
<path d="M370.869 106.78L372.751 96.4567L382.754 106.78V111.757L399.621 204.656L413.027 220.673V231.613V242.811V248.202L407.073 253.179L401.118 260.644L395.56 266.865L391.59 271.427L386.826 278.478L384.444 285.528L382.754 297.14L377.565 309.997L371.943 319.121L366.579 330.319L364.158 339.443L362.609 350.226L359.833 361.423L355.068 362.875L350.302 362.203L349.022 358.063V352.04V346.078V339.443L350.302 331.978L352.287 324.927L353.931 318.916L354.211 311.241V302.532V297.14L349.022 305.85L345.129 314.974L343.391 319.292L337.598 329.489L334.357 335.102L332.475 339.443L330.593 344.888L329.088 350.911L327.582 356.032L325.324 364.085L323.703 368.979L320.054 374.248L315.289 378.013H313.343L311.773 376.507L311.02 373.872L311.396 370.133V365.985L314.175 356.032L315.289 346.078L317.748 337.784L320.527 330.319L321.936 324.938L323.703 314.974L326.1 305.85L328.467 298.385L332.437 288.846L336.01 280.966L341.568 271.427L343.391 267.348L344.144 259.066L343.832 253.179L344.521 247.398L346.403 242.881L348.285 237.235V231.212V223.684L349.022 215.854L350.543 210.133L352.802 204.656L354.211 196.361V183.919L355.437 177.385L359.201 164.964L359.833 154.474V147.838V138.615L361.459 129.581L364.158 122.954L367.105 117.159L370.869 106.78Z" fill="#5B3E39"/>
<path d="M370.869 96.8331L374.257 104.361L487.933 184.913L480.029 204.11L478.147 221.049V230.083L480.029 242.128L483.04 253.797L492.074 266.218L496.967 282.404L499.226 295.578L496.967 307.624L492.074 320.045L493.203 326.444L494.144 330.02L495.462 333.22L496.967 335.478L499.226 337.36L501.484 336.984L502.613 335.478L503.366 333.22L504.495 326.444L505.248 320.045L505.813 311.388L507.13 303.107L509.012 295.202L511.271 282.404L511.647 274.123L511.271 266.971L512.777 261.701L516.164 258.314H519.928L547.783 263.583V253.797L543.642 242.128L537.62 230.836L535.361 218.79V202.228L534.232 191.312L530.468 180.773L530.091 172.868L530.468 164.587V157.059L529.339 150.66L528.209 144.261L525.951 135.603L519.928 114.524L515.788 101.35L509.765 85.9172L507.13 75.3776L501.484 59.9448L493.956 48.6524L484.922 39.995L472.124 35.478L454.809 31.3375H441.635H426.578L417.544 35.478L411.145 39.995L402.488 44.1355L390.819 51.2873L383.667 59.9448L378.774 71.2371L374.257 79.5182L370.869 89.6813V96.8331Z" fill="url(#paint0_linear)"/>
<path d="M408.516 199.593C408.516 210.407 399.75 219.173 388.937 219.173C378.124 219.173 369.358 210.407 369.358 199.593C369.358 188.78 378.124 180.014 388.937 180.014C399.75 180.014 408.516 188.78 408.516 199.593Z" stroke="#AF8007" stroke-width="3"/>
<path d="M379.903 101.726L381.409 92.3162L384.044 85.1643L389.314 78.3889L394.583 73.4956L404.37 71.2371L414.91 69.7315H425.825H438.623L451.798 71.2371L459.703 73.4956L467.231 76.5069L475.135 85.1643L478.9 92.3162L483.04 99.8444L487.933 108.502L491.698 119.041L492.827 124.688L494.332 135.227V150.66V166.469L492.827 178.138L489.439 189.43L484.922 199.217L478.9 206.745L472.501 212.768L464.596 218.79L458.197 223.684L450.669 228.201L443.893 229.706H433.354L425.825 228.201L418.297 225.189L410.016 218.79L402.488 210.133L396.465 201.476L391.196 192.065L387.808 183.408L385.549 175.88L382.915 167.975L381.409 160.07L380.656 152.166L379.903 142.002V135.227V129.957V120.923V110.008V101.726Z" fill="#D1B5B2" stroke="#CA9893"/>
<path d="M509.394 199.593C509.394 210.407 500.629 219.173 489.815 219.173C479.002 219.173 470.236 210.407 470.236 199.593C470.236 188.78 479.002 180.014 489.815 180.014C500.629 180.014 509.394 188.78 509.394 199.593Z" stroke="#AF8007" stroke-width="3"/>
<path d="M492.074 182.655L494.709 170.986L515.411 177.762V219.167L498.849 221.802L483.793 203.734L489.815 189.43L492.074 182.655Z" fill="#5B3E39"/>
<defs>
<linearGradient id="paint0_linear" x1="459.326" y1="31.3375" x2="459.326" y2="337.36" gradientUnits="userSpaceOnUse">
<stop stop-color="#5B3E39"/>
<stop offset="1" stop-color="#5B3E39"/>
</linearGradient>
</defs>
</svg>
