<svg width="392" height="580" viewBox="0 0 392 580" fill="none" xmlns="http://www.w3.org/2000/svg">
<path d="M188.64 190.843V184.741L268.439 158.807V161.858V169.486V185.885L272.203 207.624V220.973L279.355 225.168V235.847V251.865V273.985V285.808V304.115V318.608V327.379L277.097 331.956H272.203H268.439H262.793H257.147H248.866H242.09H234.562H228.539H220.635H215.365H207.46H202.567H196.921L191.651 330.812H186.381H180.735L174.336 330.049L167.937 328.524L162.291 327.379L157.021 326.617L152.881 325.854L145.352 325.091L138.577 323.184L133.307 320.514L129.543 318.608L132.555 312.887L135.189 304.115L138.577 296.869L142.341 285.808L145.352 276.274L150.246 265.595L153.634 256.442L157.774 245.381L162.291 235.847L165.302 230.507L167.937 225.168L170.948 220.973L174.336 214.871L177.347 211.819L179.982 207.624L182.994 202.666L186.005 196.564L188.64 190.843Z" fill="#D1B5B2"/>
<path d="M281.99 327.816L128.037 315.018L115.24 443.374H261.287L281.99 327.816Z" fill="#BC4141"/>
<path d="M259.029 203.6V198.706L269.568 205.482L286.883 251.028L280.861 277L277.473 284.528L272.956 289.798L270.698 294.691V301.843V310.877L269.568 316.9L264.675 325.181L260.534 330.074L253.759 335.344L245.854 340.99L235.315 345.13L230.798 346.636L226.281 346.26L224.399 344.001L224.022 340.99V335.344L225.152 328.945L229.292 320.664L230.798 312.759L229.292 308.619L225.152 310.877L222.893 320.664L219.506 328.945L216.118 334.215L213.859 338.355L211.601 339.108L209.342 338.731L208.213 337.602L207.837 336.097L208.59 333.462L209.342 331.956L211.601 326.686L213.859 320.664V312.006V301.843L214.989 294.691L219.506 286.034L224.022 280.388L229.292 271.73L228.539 263.826L225.152 257.427C225.152 257.427 223.547 251.916 224.022 248.393C224.49 244.93 227.41 240.112 227.41 240.112L237.573 230.325L247.36 221.291L253.759 212.634L259.029 203.6Z" fill="#5B3E39"/>
<path d="M290.647 216.774L280.108 204.729V234.465V271.354V302.596L278.602 312.006L277.097 328.945L275.779 343.813L274.462 355.294L273.144 364.516L271.45 374.867L269.004 389.547L266.557 404.227L265.051 414.861L263.546 425.494L262.04 436.128L260.534 446.762H384.374V433.964L388.138 396.699L391.149 374.114V343.625L388.138 307.866L384.374 282.27L382.115 269.472L379.48 258.556L376.469 252.533L364.8 247.263L349.368 240.864L330.923 234.465L313.232 229.196L297.799 222.42L290.647 216.774Z" fill="#FFFBFB" stroke="#C8C3C3"/>
<path d="M164.549 202.094L182.617 185.908H189.393V193.06L178.1 210.752L168.314 224.679L161.162 241.241L151.751 260.438L143.094 279.635L134.06 303.349L128.79 321.417L126.156 332.709L122.768 360.563L120.509 394.817V423.048V448.267H16.6198L21.5131 428.694L28.6649 372.232L35.4403 336.473L44.0978 307.489L54.6373 272.483L63.6712 241.241L73.0815 224.679L76.8456 217.527L87.7615 214.139L110.723 210.752L134.06 207.364L164.549 202.094Z" fill="#FFFCFC" stroke="#BFBABA"/>
<path d="M149.869 75.7798L151.752 65.4567L161.754 75.7798V80.7566L178.621 173.656L192.028 189.672V200.613V211.811V217.202L186.073 222.179L180.118 229.644L174.56 235.865L170.59 240.427L165.826 247.478L163.444 254.528L161.754 266.14L156.565 278.997L150.943 288.121L145.579 299.319L143.158 308.443L141.609 319.226L138.833 330.423L134.068 331.875L129.302 331.203L128.022 327.063V321.04V315.078V308.443L129.302 300.978L131.287 293.927L132.931 287.916L133.211 280.241V271.532V266.14L128.022 274.85L124.129 283.974L122.391 288.292L116.598 298.489L113.358 304.102L111.475 308.443L109.593 313.888L108.088 319.911L106.582 325.032L104.324 333.085L102.703 337.979L99.0539 343.248L94.2887 347.013H92.3426L90.7728 345.507L90.02 342.872L90.3964 339.133V334.985L93.1754 325.032L94.2887 315.078L96.7484 306.784L99.5274 299.319L100.936 293.938L102.703 283.974L105.101 274.85L107.467 267.385L111.437 257.846L115.01 249.966L120.568 240.427L122.391 236.348L123.144 228.066L122.832 222.179L123.521 216.398L125.403 211.881L127.285 206.235V200.212V192.684L128.022 184.854L129.543 179.133L131.802 173.656L133.211 165.361V152.919L134.437 146.385L138.201 133.964L138.833 123.474V116.838V107.615L140.459 98.5809L143.158 91.9542L146.105 86.1593L149.869 75.7798Z" fill="#5B3E39"/>
<path d="M149.869 65.8331L153.257 73.3613L266.933 153.913L259.029 173.11L257.147 190.049V199.083L259.029 211.128L262.04 222.797L271.074 235.218L275.967 251.404L278.226 264.578L275.967 276.624L271.074 289.045L272.203 295.444L273.144 299.02L274.462 302.22L275.967 304.478L278.226 306.36L280.484 305.984L281.613 304.478L282.366 302.22L283.495 295.444L284.248 289.045L284.813 280.388L286.13 272.107L288.012 264.202L290.271 251.404L290.647 243.123L290.271 235.971L291.777 230.701L295.164 227.314H298.928L326.783 232.583V222.797L322.642 211.128L316.62 199.836L314.361 187.79V171.228L313.232 160.312L309.468 149.773L309.091 141.868L309.468 133.587V126.059L308.339 119.66L307.209 113.261L304.951 104.603L298.928 83.5244L294.788 70.35L288.765 54.9171L286.13 44.3776L280.484 28.9447L272.956 17.6524L263.922 8.99493L251.124 4.47799L233.809 0.337463H220.635H205.578L196.544 4.47799L190.145 8.99493L181.488 13.1355L169.819 20.2873L162.667 28.9447L157.774 40.2371L153.257 48.5181L149.869 58.6813V65.8331Z" fill="#5B3E39"/>
<path d="M187.516 168.593C187.516 179.407 178.75 188.173 167.937 188.173C157.124 188.173 148.358 179.407 148.358 168.593C148.358 157.78 157.124 149.014 167.937 149.014C178.75 149.014 187.516 157.78 187.516 168.593Z" stroke="#AF8007" stroke-width="3"/>
<path d="M158.903 70.7264L160.409 61.3161L163.044 54.1643L168.314 47.3889L173.583 42.4956L183.37 40.2371L193.91 38.7314H204.826H217.624L230.798 40.2371L238.703 42.4956L246.231 45.5069L254.135 54.1643L257.9 61.3161L262.04 68.8444L266.933 77.5018L270.698 88.0414L271.827 93.6875L273.332 104.227V119.66V135.469L271.827 147.138L268.439 158.43L263.922 168.217L257.9 175.745L251.501 181.768L243.596 187.79L237.197 192.684L229.669 197.201L222.893 198.706H212.354L204.826 197.201L197.297 194.189L189.016 187.79L181.488 179.133L175.465 170.475L170.196 161.065L166.808 152.408L164.549 144.879L161.915 136.975L160.409 129.07L159.656 121.166L158.903 111.002V104.227V98.9573V89.9234V79.0075V70.7264Z" fill="#D1B5B2" stroke="#CA9893"/>
<path d="M288.395 168.593C288.395 179.407 279.629 188.173 268.815 188.173C258.002 188.173 249.236 179.407 249.236 168.593C249.236 157.78 258.002 149.014 268.815 149.014C279.629 149.014 288.395 157.78 288.395 168.593Z" stroke="#AF8007" stroke-width="3"/>
<path d="M271.074 151.655L273.709 139.986L294.411 146.762V188.167L277.849 190.802L262.793 172.734L268.815 158.43L271.074 151.655Z" fill="#5B3E39"/>
</svg>
